<svg id="Layer_1" data-name="Layer 1" xmlns="http://www.w3.org/2000/svg" viewBox="0 0 841.89 595.28"><defs><style>.cls-1{fill:#ededed;}.cls-14,.cls-15,.cls-16,.cls-17,.cls-18,.cls-19,.cls-2,.cls-20,.cls-5,.cls-7{fill:none;}.cls-11,.cls-12,.cls-2,.cls-8{stroke:#123759;}.cls-11,.cls-12,.cls-14,.cls-15,.cls-16,.cls-17,.cls-18,.cls-19,.cls-2,.cls-20,.cls-5,.cls-7,.cls-8{stroke-miterlimit:10;}.cls-14,.cls-2,.cls-7,.cls-8{stroke-width:4px;}.cls-3,.cls-6{fill:#f6a039;}.cls-4{fill:#e4eaca;}.cls-5{stroke:#1d1d1b;}.cls-6{font-size:35.83px;font-family:MyriadPro-Regular, Myriad Pro;}.cls-7{stroke:#069999;}.cls-13,.cls-8{fill:#fff;}.cls-9{fill:#00a19a;}.cls-10{fill:#083839;}.cls-11{fill:#103935;}.cls-12{fill:#0c3f3b;}.cls-14,.cls-15{stroke:#00a19a;}.cls-15,.cls-16,.cls-17,.cls-18,.cls-19,.cls-20{stroke-width:2px;}.cls-16,.cls-17,.cls-18,.cls-19,.cls-20{stroke:#29235c;}.cls-17{stroke-dasharray:3.8 11.39 12.34 3.8;}.cls-18{stroke-dasharray:11.39 12.34 3.8 11.39 12.34 3.8;}.cls-19{stroke-dasharray:4.12 12.37 13.4 4.12;}.cls-20{stroke-dasharray:12.37 13.4 4.12 12.37 13.4 4.12;}.cls-21{fill:#ec6568;}.cls-22{fill:#ab2a30;}.cls-23{fill:#7f171b;}.cls-24{fill:#c66e14;}</style></defs><title>rocketbgtbArtboard 1</title><path class="cls-1" d="M622.62,406.36v9.14a10.61,10.61,0,0,1-10.36,10.78H596.61a10.44,10.44,0,0,0-9.8-7.33H494.46v2a11,11,0,0,1-1.38,5.34H596.61a10.84,10.84,0,0,1,.55,3.45v9.14a10.61,10.61,0,0,1-10.36,10.78H530.62v4.57a10.8,10.8,0,0,1-6.7,10.08h53.9a10.61,10.61,0,0,1,10.36,10.78v9.14A10.61,10.61,0,0,1,577.83,495H342.23a10.61,10.61,0,0,1-10.36-10.78v-9.14A10.81,10.81,0,0,1,338.58,465H284.66a10.61,10.61,0,0,1-10.36-10.78v-9.14a10.61,10.61,0,0,1,10.36-10.78h56.18v-2.58H248.5a10.61,10.61,0,0,1-10.36-10.78v-9.14a10.94,10.94,0,0,1,4.17-8.63h-14A10.61,10.61,0,0,1,218,392.37v-9.14a10.61,10.61,0,0,1,10.36-10.78H244a11.06,11.06,0,0,1-.54-3.44v-9.14a10.61,10.61,0,0,1,10.36-10.78H310v-4.56a10.82,10.82,0,0,1,6.71-10.09H262.79a10.61,10.61,0,0,1-10.36-10.78v-9.14a10.61,10.61,0,0,1,10.36-10.78H498.4a10.61,10.61,0,0,1,10.36,10.78v9.14A10.8,10.8,0,0,1,502,333.74H556a10.61,10.61,0,0,1,10.36,10.78v9.14A10.61,10.61,0,0,1,556,364.44H499.78V367h92.34a10.61,10.61,0,0,1,10.36,10.78v9.14a10.94,10.94,0,0,1-4.17,8.63h14A10.61,10.61,0,0,1,622.62,406.36Z"/><path class="cls-2" d="M476.41,385.28h0V331.68a8.33,8.33,0,0,0-8.34-8.34h-79a8.33,8.33,0,0,0-8.33,8.34v53.95h0"/><path class="cls-3" d="M505.51,227.07s-5.24-19.53-1.24-21.68c15.13-8.15,41.6,25,24.6,31.77-21,8.31-20,2.16-20,2.16Z"/><path class="cls-4" d="M431.62,227.53s-2.31,43.45-2.31,50.19-5,10.94,5.68,10.94,69.66-1.05,75-1.05,5.62-54,3.73-60.07-12.47.9-19.62,2S431.62,227.53,431.62,227.53Z"/><polygon class="cls-5" points="426.58 227.25 510 228.25 468.29 255.77 426.58 227.25"/><polygon class="cls-5" points="427.54 232.09 427.54 285.44 510.95 285.44 510.95 229.51 469.25 257.04 427.54 232.09"/><path class="cls-5" d="M505.47,220.42a13.1,13.1,0,0,1,13.1,13.1"/><path class="cls-5" d="M505.47,208.19a25.34,25.34,0,0,1,25.33,25.33"/><path class="cls-5" d="M505.47,220.42a13.1,13.1,0,0,1,13.1,13.1"/><path class="cls-5" d="M505.47,213.44a20.08,20.08,0,0,1,20.08,20.08"/><text class="cls-6" transform="translate(456.03 279.7)">@</text><path class="cls-7" d="M397.53,259.06l7.81,18.35a4.94,4.94,0,0,0,5.17,3,3.51,3.51,0,0,0,2.5-1.52,4,4,0,0,0,.29-3.79l-10.5-24.68a6.6,6.6,0,0,0-7.32-3.92,10.31,10.31,0,0,0-1.28.34,7.6,7.6,0,0,0-4.41,10.21L404,290.49A10.55,10.55,0,0,0,414.53,297l.78-.09a9.87,9.87,0,0,0,7.52-13.66l-13.21-31"/><path class="cls-7" d="M330.24,385.55l-15.22.38c-1.69,0-3.15,4-3.44,9.84a32,32,0,0,0,.52,7.92c.63,3.07,1.67,4.75,2.69,4.72l20.47-.52c2.37-.06,4.3-6,4.58-14.33,0-1.15.06-2.35.06-3.59,0-12-3.05-22-6.4-21.87l-27.7.7c-3.46.09-6.42,7.93-7.2,19.75q-.07,1-.12,2.05c-.81,17,3.28,33.46,8.19,33.33l25.73-.65"/><path class="cls-8" d="M436.88,399.08l55.32-19.31a.91.91,0,0,1,1.21.86v72.71h-131V380.62a.9.9,0,0,1,1.2-.86l56.64,19.43"/><line class="cls-2" x1="380.74" y1="335.68" x2="476.41" y2="335.68"/><rect class="cls-9" x="397.7" y="343.64" width="61.75" height="4.25" rx="2.12" ry="2.12"/><rect class="cls-10" x="397.23" y="353.89" width="61.75" height="4.25" rx="2.12" ry="2.12"/><rect class="cls-9" x="397.84" y="364.76" width="61.75" height="4.25" rx="2.12" ry="2.12"/><rect class="cls-9" x="363.81" y="436.01" width="127.81" height="4.25" rx="2.12" ry="2.12"/><rect class="cls-9" x="364.34" y="464.26" width="127.81" height="4.25" rx="2.12" ry="2.12"/><rect class="cls-9" x="404.02" y="471.51" width="50.97" height="4.25" rx="2.12" ry="2.12"/><rect class="cls-9" x="497.36" y="464.26" width="17.02" height="4.25" rx="2.12" ry="2.12"/><rect class="cls-11" x="520.57" y="451.22" width="17.02" height="4.25" rx="2.12" ry="2.12"/><rect class="cls-11" x="541.99" y="451.22" width="4.25" height="4.25" rx="2.12" ry="2.12"/><rect class="cls-11" x="318.9" y="451.22" width="17.02" height="4.25" rx="2.12" ry="2.12"/><rect class="cls-9" x="345.4" y="464.26" width="17.02" height="4.25" rx="2.12" ry="2.12"/><rect class="cls-12" x="339.02" y="451.22" width="178.46" height="4.25" rx="2.12" ry="2.12"/><rect class="cls-10" x="397.37" y="375.01" width="61.75" height="4.25" rx="2.12" ry="2.12"/><path class="cls-2" d="M476.41,372.26l14.91,7.09a.39.39,0,0,1,0,.73l-14.87,5.19-39.53,13.81"/><path class="cls-2" d="M380.74,371.18,365,379.53a.4.4,0,0,0,.06.73l15.66,5.37,39.51,13.56"/><circle class="cls-2" cx="428.57" cy="400.43" r="8.42"/><polygon class="cls-13" points="347.07 344.18 347.32 345.01 348 344.48 347.71 345.3 348.58 345.27 347.87 345.76 348.58 346.25 347.71 346.23 348 347.04 347.32 346.51 347.07 347.34 346.83 346.51 346.14 347.04 346.44 346.23 345.57 346.25 346.28 345.76 345.57 345.27 346.44 345.3 346.14 344.48 346.83 345.01 347.07 344.18"/><path class="cls-9" d="M369.74,346.78l-5.31-2.45,4.2-4.07-5.74,1.14,1-5.76-4,4.29-2.57-5.25-.69,5.81-5.17-2.74,2.86,5.1-5.79.82,5.31,2.45-4.2,4.07,5.74-1.14-1,5.76,4-4.29,2.57,5.25.69-5.81,5.17,2.74L364,347.6Zm-9.78,1-.85,2.79-.79-2.81L356,349.51l1-2.74-2.92,0,2.42-1.62-2.39-1.67,2.92.11-.95-2.76,2.29,1.8.85-2.79.79,2.81,2.33-1.75-1,2.74,2.92,0-2.42,1.62,2.39,1.67-2.92-.11.95,2.76Z"/><path class="cls-9" d="M520.57,365.71,519,365l1.23-1.19-1.68.33.3-1.69-1.16,1.26-.75-1.54-.2,1.7-1.51-.8.84,1.49-1.7.24,1.55.72-1.23,1.19,1.68-.33-.3,1.69,1.16-1.26.75,1.54.2-1.7,1.51.8-.84-1.49Zm-2.86.29-.25.82-.23-.82-.68.51.29-.8H516l.71-.48-.7-.49.85,0-.28-.81.67.53.25-.82.23.82.68-.51-.29.8H519l-.71.48.7.49-.85,0,.28.81Z"/><path class="cls-9" d="M465.73,311.75l-3.08-1.42,2.44-2.36-3.33.66.59-3.34L460,307.78l-1.49-3-.4,3.37-3-1.59,1.66,3-3.36.48,3.08,1.42-2.44,2.36,3.33-.66-.59,3.34,2.31-2.49,1.49,3,.4-3.37,3,1.59-1.66-3Zm-5.68.58-.5,1.62-.46-1.63-1.35,1,.58-1.59-1.69,0,1.41-.94-1.39-1,1.69.07-.55-1.6,1.33,1,.5-1.62.46,1.63,1.35-1-.58,1.59,1.69,0-1.41.94,1.39,1-1.69-.07.55,1.6Z"/><path class="cls-9" d="M509.37,326.09l-2-.92,1.58-1.52-2.15.43.38-2.16-1.49,1.61-1-2-.26,2.18-1.94-1,1.07,1.91-2.17.31,2,.92-1.58,1.52,2.15-.43-.38,2.16,1.49-1.61,1,2,.26-2.18,1.94,1-1.07-1.91Zm-3.67.37-.32,1-.3-1.05-.87.66.38-1-1.09,0,.91-.61-.9-.63,1.09,0-.36-1,.86.68.32-1,.3,1.05.87-.66-.38,1,1.09,0-.91.61.9.63-1.09,0,.36,1Z"/><circle class="cls-14" cx="356.79" cy="314.49" r="5.09"/><circle class="cls-15" cx="426.17" cy="306.86" r="2.54"/><path class="cls-16" d="M495.08,418s1.54-1.59,4.09-4.39"/><path class="cls-17" d="M507.29,404.3c5.35-6.34,11.8-14.43,17.91-23.29"/><path class="cls-18" d="M526.28,379.45c13.2-19.45,24.44-42.21,19-58.09-10.2-30.79-31.28-26.49-39.05-20.2s-18.5,22.39-5,38.34,44.24,9.12,61.18-9.08C574,318,580.91,300.62,584.15,290.76"/><path class="cls-16" d="M584.74,288.92c1.12-3.57,1.64-5.77,1.64-5.77"/><path class="cls-16" d="M436.52,337.64s-1.67-1.39-4.52-3.94"/><path class="cls-19" d="M422.17,324.61c-6.34-6.07-14.16-14-22.17-23"/><path class="cls-20" d="M398.64,300.05c-23.57-27-48.1-63.64-40.65-93.44,12.19-50.1,42.43-50.27,53.93-43.18s27.93,28.18,9.92,56.76-62.12,28-87.52,5.65c-18.7-16.42-30.16-43.49-34.91-56.65"/><path class="cls-16" d="M298.72,167.26c-1.24-3.57-1.86-5.7-1.86-5.7"/><polygon class="cls-21" points="265.24 160.31 292.24 158.56 301.87 178.01 303.64 159.23 338.56 168.43 340.41 99.76 265.24 160.31"/><polygon class="cls-22" points="301.87 178.01 292.24 158.56 340.41 99.76 303.64 159.23 301.87 178.01"/><polygon class="cls-23" points="301.87 178.01 312.54 161.57 303.64 159.23 301.87 178.01"/><polygon class="cls-3" points="254.25 237.17 286.96 209.75 275.74 194.23 272.12 209.73 255.71 202.26 258.89 220.73 242.62 221.08 254.25 237.17"/><polygon class="cls-24" points="291.73 216.35 259.02 243.78 254.25 237.17 286.96 209.75 291.73 216.35"/><path class="cls-4" d="M271.11,227.92a4.2,4.2,0,0,1,3.74-4.33c8.84-.57,31.43-1.67,46.73.7,19.39,3,33.28-6,39.11-2.07l4.11,2.79a4.4,4.4,0,0,1,1.87,3.39c.83,13.73,4.65,86.43-7.46,86.09-13.37-.37-87.44-2.62-88.1-7.86a18.06,18.06,0,0,1,0-6.74Z"/><rect class="cls-5" x="268.44" y="232.55" width="97.61" height="81.23"/><path class="cls-5" d="M277.84,222.43h78.82a9.4,9.4,0,0,1,9.4,9.4v.72a0,0,0,0,1,0,0H268.44a0,0,0,0,1,0,0v-.72A9.4,9.4,0,0,1,277.84,222.43Z"/><line class="cls-5" x1="273.12" y1="244.36" x2="289.35" y2="244.36"/><line class="cls-5" x1="273.12" y1="249.06" x2="289.35" y2="249.06"/><line class="cls-5" x1="273.12" y1="253.76" x2="289.35" y2="253.76"/><path class="cls-5" d="M347.18,297.15h8.9a11.92,11.92,0,0,1-10.61,6.92A12.19,12.19,0,0,1,334,295h-36.4a8.36,8.36,0,0,1-15.14-.55h6.38v-8h-6.69a8.47,8.47,0,0,1,16.25.55H334a12.19,12.19,0,0,1,11.46-9.1,12.06,12.06,0,0,1,11.09,8h-9.38Z"/><ellipse class="cls-3" cx="274.97" cy="227.96" rx="1.85" ry="2.01"/><ellipse class="cls-3" cx="281.08" cy="227.96" rx="1.85" ry="2.01"/><ellipse class="cls-3" cx="286.94" cy="227.96" rx="1.85" ry="2.01"/></svg>